<mxfile host="Electron" agent="Mozilla/5.0 (Windows NT 10.0; Win64; x64) AppleWebKit/537.36 (KHTML, like Gecko) draw.io/24.7.5 Chrome/126.0.6478.183 Electron/31.3.0 Safari/537.36" version="24.7.5">
  <diagram name="PÃ¡gina-1" id="h4YsIUtn6Sc1W326wzpE">
    <mxGraphModel dx="2234" dy="1244" grid="1" gridSize="10" guides="1" tooltips="1" connect="1" arrows="1" fold="1" page="0" pageScale="1" pageWidth="827" pageHeight="1169" math="0" shadow="0">
      <root>
        <mxCell id="0" />
        <mxCell id="1" parent="0" />
        <mxCell id="T_IMcI36_4ZPe9yHBbzY-87" style="edgeStyle=orthogonalEdgeStyle;rounded=0;orthogonalLoop=1;jettySize=auto;html=1;entryX=0.5;entryY=0;entryDx=0;entryDy=0;endArrow=none;endFill=0;" parent="1" source="T_IMcI36_4ZPe9yHBbzY-1" target="T_IMcI36_4ZPe9yHBbzY-86" edge="1">
          <mxGeometry relative="1" as="geometry">
            <Array as="points">
              <mxPoint x="850" y="260" />
              <mxPoint x="1110" y="260" />
            </Array>
          </mxGeometry>
        </mxCell>
        <mxCell id="T_IMcI36_4ZPe9yHBbzY-1" value="Auto" style="rounded=0;whiteSpace=wrap;html=1;" parent="1" vertex="1">
          <mxGeometry x="760" width="120" height="60" as="geometry" />
        </mxCell>
        <mxCell id="T_IMcI36_4ZPe9yHBbzY-2" value="Marca" style="ellipse;whiteSpace=wrap;html=1;" parent="1" vertex="1">
          <mxGeometry x="640" y="-170" width="120" height="80" as="geometry" />
        </mxCell>
        <mxCell id="T_IMcI36_4ZPe9yHBbzY-3" value="Modelo" style="ellipse;whiteSpace=wrap;html=1;" parent="1" vertex="1">
          <mxGeometry x="820" y="-190" width="120" height="80" as="geometry" />
        </mxCell>
        <mxCell id="T_IMcI36_4ZPe9yHBbzY-4" value="Color" style="ellipse;whiteSpace=wrap;html=1;" parent="1" vertex="1">
          <mxGeometry x="960" y="-170" width="120" height="80" as="geometry" />
        </mxCell>
        <mxCell id="T_IMcI36_4ZPe9yHBbzY-5" value="Numero de motor" style="ellipse;whiteSpace=wrap;html=1;" parent="1" vertex="1">
          <mxGeometry x="450" y="-110" width="120" height="80" as="geometry" />
        </mxCell>
        <mxCell id="T_IMcI36_4ZPe9yHBbzY-6" value="Numero de chasis" style="ellipse;whiteSpace=wrap;html=1;" parent="1" vertex="1">
          <mxGeometry x="440" y="-10" width="120" height="80" as="geometry" />
        </mxCell>
        <mxCell id="T_IMcI36_4ZPe9yHBbzY-7" value="Datos del automovil" style="ellipse;whiteSpace=wrap;html=1;" parent="1" vertex="1">
          <mxGeometry x="410" y="175" width="120" height="80" as="geometry" />
        </mxCell>
        <mxCell id="T_IMcI36_4ZPe9yHBbzY-52" style="edgeStyle=orthogonalEdgeStyle;rounded=0;orthogonalLoop=1;jettySize=auto;html=1;entryX=1;entryY=0.5;entryDx=0;entryDy=0;endArrow=none;endFill=0;" parent="1" source="T_IMcI36_4ZPe9yHBbzY-8" target="T_IMcI36_4ZPe9yHBbzY-51" edge="1">
          <mxGeometry relative="1" as="geometry" />
        </mxCell>
        <mxCell id="T_IMcI36_4ZPe9yHBbzY-84" style="edgeStyle=orthogonalEdgeStyle;rounded=0;orthogonalLoop=1;jettySize=auto;html=1;endArrow=none;endFill=0;exitX=0.5;exitY=0;exitDx=0;exitDy=0;" parent="1" source="T_IMcI36_4ZPe9yHBbzY-83" target="T_IMcI36_4ZPe9yHBbzY-8" edge="1">
          <mxGeometry relative="1" as="geometry">
            <Array as="points">
              <mxPoint x="-150" y="150" />
            </Array>
          </mxGeometry>
        </mxCell>
        <mxCell id="T_IMcI36_4ZPe9yHBbzY-8" value="Cliente" style="rounded=0;whiteSpace=wrap;html=1;" parent="1" vertex="1">
          <mxGeometry x="70" y="95" width="120" height="60" as="geometry" />
        </mxCell>
        <mxCell id="T_IMcI36_4ZPe9yHBbzY-9" value="Numero cliente" style="ellipse;whiteSpace=wrap;html=1;" parent="1" vertex="1">
          <mxGeometry x="-110" y="-50" width="120" height="80" as="geometry" />
        </mxCell>
        <mxCell id="T_IMcI36_4ZPe9yHBbzY-10" value="Apellido" style="ellipse;whiteSpace=wrap;html=1;" parent="1" vertex="1">
          <mxGeometry x="-20" y="-150" width="120" height="80" as="geometry" />
        </mxCell>
        <mxCell id="T_IMcI36_4ZPe9yHBbzY-11" value="Nombre" style="ellipse;whiteSpace=wrap;html=1;" parent="1" vertex="1">
          <mxGeometry x="140" y="-150" width="120" height="80" as="geometry" />
        </mxCell>
        <mxCell id="T_IMcI36_4ZPe9yHBbzY-12" value="Telefono" style="ellipse;whiteSpace=wrap;html=1;" parent="1" vertex="1">
          <mxGeometry x="60" y="-250" width="120" height="80" as="geometry" />
        </mxCell>
        <mxCell id="T_IMcI36_4ZPe9yHBbzY-13" value="Direccion" style="ellipse;whiteSpace=wrap;html=1;" parent="1" vertex="1">
          <mxGeometry x="250" y="-40" width="120" height="80" as="geometry" />
        </mxCell>
        <mxCell id="T_IMcI36_4ZPe9yHBbzY-14" value="Vendedor" style="rounded=0;whiteSpace=wrap;html=1;" parent="1" vertex="1">
          <mxGeometry x="80" y="350" width="120" height="60" as="geometry" />
        </mxCell>
        <mxCell id="T_IMcI36_4ZPe9yHBbzY-22" style="edgeStyle=orthogonalEdgeStyle;rounded=0;orthogonalLoop=1;jettySize=auto;html=1;entryX=0;entryY=0.5;entryDx=0;entryDy=0;endArrow=none;endFill=0;" parent="1" source="T_IMcI36_4ZPe9yHBbzY-20" target="T_IMcI36_4ZPe9yHBbzY-21" edge="1">
          <mxGeometry relative="1" as="geometry" />
        </mxCell>
        <mxCell id="T_IMcI36_4ZPe9yHBbzY-20" value="Venta" style="rounded=0;whiteSpace=wrap;html=1;" parent="1" vertex="1">
          <mxGeometry x="870" y="370" width="120" height="60" as="geometry" />
        </mxCell>
        <mxCell id="T_IMcI36_4ZPe9yHBbzY-21" value="Es un" style="triangle;whiteSpace=wrap;html=1;direction=south;" parent="1" vertex="1">
          <mxGeometry x="890" y="500" width="80" height="60" as="geometry" />
        </mxCell>
        <mxCell id="T_IMcI36_4ZPe9yHBbzY-39" style="edgeStyle=orthogonalEdgeStyle;rounded=0;orthogonalLoop=1;jettySize=auto;html=1;entryX=0.5;entryY=1;entryDx=0;entryDy=0;endArrow=none;endFill=0;" parent="1" source="T_IMcI36_4ZPe9yHBbzY-23" target="T_IMcI36_4ZPe9yHBbzY-27" edge="1">
          <mxGeometry relative="1" as="geometry" />
        </mxCell>
        <mxCell id="T_IMcI36_4ZPe9yHBbzY-23" value="Venta al contado" style="rounded=0;whiteSpace=wrap;html=1;" parent="1" vertex="1">
          <mxGeometry x="760" y="610" width="120" height="60" as="geometry" />
        </mxCell>
        <mxCell id="T_IMcI36_4ZPe9yHBbzY-49" style="edgeStyle=orthogonalEdgeStyle;rounded=0;orthogonalLoop=1;jettySize=auto;html=1;entryX=0;entryY=0.5;entryDx=0;entryDy=0;endArrow=none;endFill=0;" parent="1" source="T_IMcI36_4ZPe9yHBbzY-24" target="T_IMcI36_4ZPe9yHBbzY-48" edge="1">
          <mxGeometry relative="1" as="geometry" />
        </mxCell>
        <mxCell id="T_IMcI36_4ZPe9yHBbzY-24" value="Venta por plan" style="rounded=0;whiteSpace=wrap;html=1;" parent="1" vertex="1">
          <mxGeometry x="980" y="610" width="120" height="60" as="geometry" />
        </mxCell>
        <mxCell id="T_IMcI36_4ZPe9yHBbzY-25" value="" style="endArrow=none;html=1;rounded=0;entryX=0.5;entryY=1;entryDx=0;entryDy=0;exitX=0.558;exitY=-0.067;exitDx=0;exitDy=0;exitPerimeter=0;" parent="1" source="T_IMcI36_4ZPe9yHBbzY-23" target="T_IMcI36_4ZPe9yHBbzY-21" edge="1">
          <mxGeometry width="50" height="50" relative="1" as="geometry">
            <mxPoint x="760" y="540" as="sourcePoint" />
            <mxPoint x="810" y="490" as="targetPoint" />
          </mxGeometry>
        </mxCell>
        <mxCell id="T_IMcI36_4ZPe9yHBbzY-26" value="" style="endArrow=none;html=1;rounded=0;entryX=0.5;entryY=0;entryDx=0;entryDy=0;exitX=0.5;exitY=0;exitDx=0;exitDy=0;" parent="1" source="T_IMcI36_4ZPe9yHBbzY-24" target="T_IMcI36_4ZPe9yHBbzY-21" edge="1">
          <mxGeometry width="50" height="50" relative="1" as="geometry">
            <mxPoint x="857" y="616" as="sourcePoint" />
            <mxPoint x="920" y="540" as="targetPoint" />
          </mxGeometry>
        </mxCell>
        <mxCell id="T_IMcI36_4ZPe9yHBbzY-47" style="edgeStyle=orthogonalEdgeStyle;rounded=0;orthogonalLoop=1;jettySize=auto;html=1;entryX=0.5;entryY=1;entryDx=0;entryDy=0;endArrow=none;endFill=0;" parent="1" source="T_IMcI36_4ZPe9yHBbzY-27" target="T_IMcI36_4ZPe9yHBbzY-1" edge="1">
          <mxGeometry relative="1" as="geometry">
            <Array as="points">
              <mxPoint x="640" y="260" />
              <mxPoint x="820" y="260" />
            </Array>
          </mxGeometry>
        </mxCell>
        <mxCell id="T_IMcI36_4ZPe9yHBbzY-82" style="edgeStyle=orthogonalEdgeStyle;rounded=0;orthogonalLoop=1;jettySize=auto;html=1;entryX=1;entryY=0.5;entryDx=0;entryDy=0;endArrow=none;endFill=0;" parent="1" source="T_IMcI36_4ZPe9yHBbzY-27" target="T_IMcI36_4ZPe9yHBbzY-14" edge="1">
          <mxGeometry relative="1" as="geometry" />
        </mxCell>
        <mxCell id="T_IMcI36_4ZPe9yHBbzY-27" value="Tiene informacion" style="rhombus;whiteSpace=wrap;html=1;" parent="1" vertex="1">
          <mxGeometry x="600" y="340" width="80" height="80" as="geometry" />
        </mxCell>
        <mxCell id="T_IMcI36_4ZPe9yHBbzY-28" value="" style="endArrow=none;html=1;rounded=0;entryX=0.15;entryY=0.983;entryDx=0;entryDy=0;entryPerimeter=0;exitX=0.617;exitY=0;exitDx=0;exitDy=0;exitPerimeter=0;" parent="1" target="T_IMcI36_4ZPe9yHBbzY-14" edge="1">
          <mxGeometry width="50" height="50" relative="1" as="geometry">
            <mxPoint x="-25.960000000000036" y="510" as="sourcePoint" />
            <mxPoint x="-20" y="460" as="targetPoint" />
          </mxGeometry>
        </mxCell>
        <mxCell id="T_IMcI36_4ZPe9yHBbzY-29" value="" style="endArrow=none;html=1;rounded=0;entryX=0.333;entryY=1;entryDx=0;entryDy=0;entryPerimeter=0;exitX=0.5;exitY=0;exitDx=0;exitDy=0;" parent="1" target="T_IMcI36_4ZPe9yHBbzY-14" edge="1">
          <mxGeometry width="50" height="50" relative="1" as="geometry">
            <mxPoint x="50" y="580" as="sourcePoint" />
            <mxPoint x="98" y="429" as="targetPoint" />
          </mxGeometry>
        </mxCell>
        <mxCell id="T_IMcI36_4ZPe9yHBbzY-30" value="" style="endArrow=none;html=1;rounded=0;entryX=0.5;entryY=1;entryDx=0;entryDy=0;exitX=0.5;exitY=0;exitDx=0;exitDy=0;" parent="1" target="T_IMcI36_4ZPe9yHBbzY-14" edge="1">
          <mxGeometry width="50" height="50" relative="1" as="geometry">
            <mxPoint x="130" y="660" as="sourcePoint" />
            <mxPoint x="108" y="439" as="targetPoint" />
          </mxGeometry>
        </mxCell>
        <mxCell id="T_IMcI36_4ZPe9yHBbzY-31" value="" style="endArrow=none;html=1;rounded=0;entryX=0.75;entryY=1;entryDx=0;entryDy=0;exitX=0.375;exitY=0;exitDx=0;exitDy=0;exitPerimeter=0;" parent="1" target="T_IMcI36_4ZPe9yHBbzY-14" edge="1">
          <mxGeometry width="50" height="50" relative="1" as="geometry">
            <mxPoint x="225" y="600" as="sourcePoint" />
            <mxPoint x="118" y="449" as="targetPoint" />
          </mxGeometry>
        </mxCell>
        <mxCell id="T_IMcI36_4ZPe9yHBbzY-32" value="" style="endArrow=none;html=1;rounded=0;entryX=0.858;entryY=1;entryDx=0;entryDy=0;exitX=0.5;exitY=0;exitDx=0;exitDy=0;entryPerimeter=0;" parent="1" target="T_IMcI36_4ZPe9yHBbzY-14" edge="1">
          <mxGeometry width="50" height="50" relative="1" as="geometry">
            <mxPoint x="340" y="540" as="sourcePoint" />
            <mxPoint x="128" y="459" as="targetPoint" />
          </mxGeometry>
        </mxCell>
        <mxCell id="T_IMcI36_4ZPe9yHBbzY-33" value="" style="endArrow=none;html=1;rounded=0;entryX=0.025;entryY=0.713;entryDx=0;entryDy=0;entryPerimeter=0;exitX=0.833;exitY=0;exitDx=0;exitDy=0;exitPerimeter=0;" parent="1" source="T_IMcI36_4ZPe9yHBbzY-8" target="T_IMcI36_4ZPe9yHBbzY-13" edge="1">
          <mxGeometry width="50" height="50" relative="1" as="geometry">
            <mxPoint x="70" y="55" as="sourcePoint" />
            <mxPoint x="120" y="5" as="targetPoint" />
          </mxGeometry>
        </mxCell>
        <mxCell id="T_IMcI36_4ZPe9yHBbzY-34" value="" style="endArrow=none;html=1;rounded=0;entryX=0.558;entryY=0.975;entryDx=0;entryDy=0;entryPerimeter=0;exitX=0.158;exitY=-0.05;exitDx=0;exitDy=0;exitPerimeter=0;" parent="1" source="T_IMcI36_4ZPe9yHBbzY-8" target="T_IMcI36_4ZPe9yHBbzY-9" edge="1">
          <mxGeometry width="50" height="50" relative="1" as="geometry">
            <mxPoint x="180" y="105" as="sourcePoint" />
            <mxPoint x="263" y="27" as="targetPoint" />
          </mxGeometry>
        </mxCell>
        <mxCell id="T_IMcI36_4ZPe9yHBbzY-35" value="" style="endArrow=none;html=1;rounded=0;entryX=0.5;entryY=1;entryDx=0;entryDy=0;exitX=0.75;exitY=0;exitDx=0;exitDy=0;" parent="1" source="T_IMcI36_4ZPe9yHBbzY-8" target="T_IMcI36_4ZPe9yHBbzY-11" edge="1">
          <mxGeometry width="50" height="50" relative="1" as="geometry">
            <mxPoint x="190" y="115" as="sourcePoint" />
            <mxPoint x="273" y="37" as="targetPoint" />
          </mxGeometry>
        </mxCell>
        <mxCell id="T_IMcI36_4ZPe9yHBbzY-36" value="" style="endArrow=none;html=1;rounded=0;entryX=0.5;entryY=1;entryDx=0;entryDy=0;exitX=0.25;exitY=0;exitDx=0;exitDy=0;" parent="1" source="T_IMcI36_4ZPe9yHBbzY-8" target="T_IMcI36_4ZPe9yHBbzY-10" edge="1">
          <mxGeometry width="50" height="50" relative="1" as="geometry">
            <mxPoint x="200" y="125" as="sourcePoint" />
            <mxPoint x="283" y="47" as="targetPoint" />
          </mxGeometry>
        </mxCell>
        <mxCell id="T_IMcI36_4ZPe9yHBbzY-37" value="" style="endArrow=none;html=1;rounded=0;entryX=0.5;entryY=1;entryDx=0;entryDy=0;exitX=0.5;exitY=0;exitDx=0;exitDy=0;" parent="1" source="T_IMcI36_4ZPe9yHBbzY-8" target="T_IMcI36_4ZPe9yHBbzY-12" edge="1">
          <mxGeometry width="50" height="50" relative="1" as="geometry">
            <mxPoint x="210" y="135" as="sourcePoint" />
            <mxPoint x="293" y="57" as="targetPoint" />
          </mxGeometry>
        </mxCell>
        <mxCell id="T_IMcI36_4ZPe9yHBbzY-41" value="Numero de venta identificatorio" style="ellipse;whiteSpace=wrap;html=1;" parent="1" vertex="1">
          <mxGeometry x="690" y="710" width="120" height="80" as="geometry" />
        </mxCell>
        <mxCell id="T_IMcI36_4ZPe9yHBbzY-42" value="Fecha inicio operacion" style="ellipse;whiteSpace=wrap;html=1;" parent="1" vertex="1">
          <mxGeometry x="470" y="450" width="120" height="80" as="geometry" />
        </mxCell>
        <mxCell id="T_IMcI36_4ZPe9yHBbzY-43" value="Precio definitivo" style="ellipse;whiteSpace=wrap;html=1;" parent="1" vertex="1">
          <mxGeometry x="830" y="710" width="120" height="80" as="geometry" />
        </mxCell>
        <mxCell id="T_IMcI36_4ZPe9yHBbzY-44" value="" style="endArrow=none;html=1;rounded=0;entryX=0;entryY=1;entryDx=0;entryDy=0;exitX=0.75;exitY=0.025;exitDx=0;exitDy=0;exitPerimeter=0;" parent="1" source="T_IMcI36_4ZPe9yHBbzY-42" target="T_IMcI36_4ZPe9yHBbzY-27" edge="1">
          <mxGeometry width="50" height="50" relative="1" as="geometry">
            <mxPoint x="560" y="460" as="sourcePoint" />
            <mxPoint x="610" y="410" as="targetPoint" />
          </mxGeometry>
        </mxCell>
        <mxCell id="T_IMcI36_4ZPe9yHBbzY-45" value="" style="endArrow=none;html=1;rounded=0;entryX=0.342;entryY=1.017;entryDx=0;entryDy=0;entryPerimeter=0;exitX=0.5;exitY=0;exitDx=0;exitDy=0;" parent="1" source="T_IMcI36_4ZPe9yHBbzY-41" target="T_IMcI36_4ZPe9yHBbzY-23" edge="1">
          <mxGeometry width="50" height="50" relative="1" as="geometry">
            <mxPoint x="700" y="740" as="sourcePoint" />
            <mxPoint x="750" y="690" as="targetPoint" />
          </mxGeometry>
        </mxCell>
        <mxCell id="T_IMcI36_4ZPe9yHBbzY-46" value="" style="endArrow=none;html=1;rounded=0;entryX=0.642;entryY=1.033;entryDx=0;entryDy=0;entryPerimeter=0;exitX=0.5;exitY=0;exitDx=0;exitDy=0;" parent="1" source="T_IMcI36_4ZPe9yHBbzY-43" target="T_IMcI36_4ZPe9yHBbzY-23" edge="1">
          <mxGeometry width="50" height="50" relative="1" as="geometry">
            <mxPoint x="710" y="750" as="sourcePoint" />
            <mxPoint x="760" y="700" as="targetPoint" />
          </mxGeometry>
        </mxCell>
        <mxCell id="T_IMcI36_4ZPe9yHBbzY-50" style="edgeStyle=orthogonalEdgeStyle;rounded=0;orthogonalLoop=1;jettySize=auto;html=1;entryX=0.85;entryY=1;entryDx=0;entryDy=0;endArrow=none;endFill=0;exitX=0.5;exitY=0;exitDx=0;exitDy=0;entryPerimeter=0;" parent="1" source="T_IMcI36_4ZPe9yHBbzY-48" target="T_IMcI36_4ZPe9yHBbzY-1" edge="1">
          <mxGeometry relative="1" as="geometry">
            <Array as="points">
              <mxPoint x="1300" y="200" />
              <mxPoint x="870" y="200" />
              <mxPoint x="870" y="60" />
            </Array>
          </mxGeometry>
        </mxCell>
        <mxCell id="T_IMcI36_4ZPe9yHBbzY-63" style="edgeStyle=orthogonalEdgeStyle;rounded=0;orthogonalLoop=1;jettySize=auto;html=1;entryX=1;entryY=0.5;entryDx=0;entryDy=0;endArrow=none;endFill=0;" parent="1" source="T_IMcI36_4ZPe9yHBbzY-48" target="T_IMcI36_4ZPe9yHBbzY-8" edge="1">
          <mxGeometry relative="1" as="geometry">
            <Array as="points">
              <mxPoint x="1600" y="510" />
              <mxPoint x="1600" y="125" />
            </Array>
          </mxGeometry>
        </mxCell>
        <mxCell id="T_IMcI36_4ZPe9yHBbzY-74" style="edgeStyle=orthogonalEdgeStyle;rounded=0;orthogonalLoop=1;jettySize=auto;html=1;entryX=0.5;entryY=0;entryDx=0;entryDy=0;endArrow=none;endFill=0;" parent="1" source="T_IMcI36_4ZPe9yHBbzY-48" target="T_IMcI36_4ZPe9yHBbzY-65" edge="1">
          <mxGeometry relative="1" as="geometry">
            <Array as="points">
              <mxPoint x="1300" y="690" />
              <mxPoint x="1280" y="690" />
            </Array>
          </mxGeometry>
        </mxCell>
        <mxCell id="T_IMcI36_4ZPe9yHBbzY-48" value="Guarda datos" style="rhombus;whiteSpace=wrap;html=1;" parent="1" vertex="1">
          <mxGeometry x="1260" y="470" width="80" height="80" as="geometry" />
        </mxCell>
        <mxCell id="T_IMcI36_4ZPe9yHBbzY-62" style="edgeStyle=orthogonalEdgeStyle;rounded=0;orthogonalLoop=1;jettySize=auto;html=1;entryX=0.317;entryY=0.983;entryDx=0;entryDy=0;endArrow=none;endFill=0;entryPerimeter=0;" parent="1" source="T_IMcI36_4ZPe9yHBbzY-51" target="T_IMcI36_4ZPe9yHBbzY-24" edge="1">
          <mxGeometry relative="1" as="geometry">
            <mxPoint x="-220" y="1130" as="targetPoint" />
            <Array as="points">
              <mxPoint x="-220" y="890" />
              <mxPoint x="1018" y="890" />
            </Array>
          </mxGeometry>
        </mxCell>
        <mxCell id="T_IMcI36_4ZPe9yHBbzY-51" value="Se suscribe" style="rhombus;whiteSpace=wrap;html=1;" parent="1" vertex="1">
          <mxGeometry x="-260" y="85" width="80" height="80" as="geometry" />
        </mxCell>
        <mxCell id="T_IMcI36_4ZPe9yHBbzY-56" value="Numero de suscripcion" style="ellipse;whiteSpace=wrap;html=1;" parent="1" vertex="1">
          <mxGeometry x="-410" y="165" width="120" height="80" as="geometry" />
        </mxCell>
        <mxCell id="T_IMcI36_4ZPe9yHBbzY-61" value="" style="endArrow=none;html=1;rounded=0;entryX=0;entryY=1;entryDx=0;entryDy=0;exitX=0.917;exitY=0.188;exitDx=0;exitDy=0;exitPerimeter=0;" parent="1" source="T_IMcI36_4ZPe9yHBbzY-56" target="T_IMcI36_4ZPe9yHBbzY-51" edge="1">
          <mxGeometry width="50" height="50" relative="1" as="geometry">
            <mxPoint x="-280" y="260" as="sourcePoint" />
            <mxPoint x="-230" y="210" as="targetPoint" />
          </mxGeometry>
        </mxCell>
        <mxCell id="T_IMcI36_4ZPe9yHBbzY-69" value="" style="endArrow=none;html=1;rounded=0;entryX=0.5;entryY=0;entryDx=0;entryDy=0;exitX=0.75;exitY=1;exitDx=0;exitDy=0;" parent="1" source="T_IMcI36_4ZPe9yHBbzY-24" target="T_IMcI36_4ZPe9yHBbzY-64" edge="1">
          <mxGeometry width="50" height="50" relative="1" as="geometry">
            <mxPoint x="1060" y="740" as="sourcePoint" />
            <mxPoint x="1110" y="690" as="targetPoint" />
          </mxGeometry>
        </mxCell>
        <mxCell id="T_IMcI36_4ZPe9yHBbzY-75" value="" style="swimlane;startSize=0;movable=1;resizable=1;rotatable=1;deletable=1;editable=1;locked=0;connectable=1;" parent="1" vertex="1">
          <mxGeometry x="970" y="580" width="550" height="420" as="geometry" />
        </mxCell>
        <mxCell id="T_IMcI36_4ZPe9yHBbzY-64" value="Tiene" style="rhombus;whiteSpace=wrap;html=1;" parent="T_IMcI36_4ZPe9yHBbzY-75" vertex="1">
          <mxGeometry x="90" y="110" width="90" height="90" as="geometry" />
        </mxCell>
        <mxCell id="T_IMcI36_4ZPe9yHBbzY-70" style="edgeStyle=orthogonalEdgeStyle;rounded=0;orthogonalLoop=1;jettySize=auto;html=1;entryX=0;entryY=0.5;entryDx=0;entryDy=0;endArrow=none;endFill=0;exitX=1;exitY=0.5;exitDx=0;exitDy=0;" parent="T_IMcI36_4ZPe9yHBbzY-75" source="T_IMcI36_4ZPe9yHBbzY-64" target="T_IMcI36_4ZPe9yHBbzY-65" edge="1">
          <mxGeometry relative="1" as="geometry">
            <mxPoint x="170" y="180" as="sourcePoint" />
          </mxGeometry>
        </mxCell>
        <mxCell id="T_IMcI36_4ZPe9yHBbzY-65" value="Cuota" style="rounded=0;whiteSpace=wrap;html=1;" parent="T_IMcI36_4ZPe9yHBbzY-75" vertex="1">
          <mxGeometry x="240" y="170" width="130" height="70" as="geometry" />
        </mxCell>
        <mxCell id="T_IMcI36_4ZPe9yHBbzY-66" value="Valor" style="ellipse;whiteSpace=wrap;html=1;" parent="T_IMcI36_4ZPe9yHBbzY-75" vertex="1">
          <mxGeometry x="110" y="270" width="120" height="80" as="geometry" />
        </mxCell>
        <mxCell id="T_IMcI36_4ZPe9yHBbzY-67" value="Fecha vencimiento" style="ellipse;whiteSpace=wrap;html=1;" parent="T_IMcI36_4ZPe9yHBbzY-75" vertex="1">
          <mxGeometry x="250" y="310" width="120" height="80" as="geometry" />
        </mxCell>
        <mxCell id="T_IMcI36_4ZPe9yHBbzY-68" value="Fecha pago" style="ellipse;whiteSpace=wrap;html=1;" parent="T_IMcI36_4ZPe9yHBbzY-75" vertex="1">
          <mxGeometry x="380" y="270" width="120" height="80" as="geometry" />
        </mxCell>
        <mxCell id="T_IMcI36_4ZPe9yHBbzY-71" value="" style="endArrow=none;html=1;rounded=0;entryX=0.125;entryY=1.033;entryDx=0;entryDy=0;entryPerimeter=0;exitX=1;exitY=0;exitDx=0;exitDy=0;" parent="T_IMcI36_4ZPe9yHBbzY-75" source="T_IMcI36_4ZPe9yHBbzY-66" target="T_IMcI36_4ZPe9yHBbzY-65" edge="1">
          <mxGeometry width="50" height="50" relative="1" as="geometry">
            <mxPoint x="100" y="410" as="sourcePoint" />
            <mxPoint x="150" y="360" as="targetPoint" />
          </mxGeometry>
        </mxCell>
        <mxCell id="T_IMcI36_4ZPe9yHBbzY-72" value="" style="endArrow=none;html=1;rounded=0;entryX=0.258;entryY=0.05;entryDx=0;entryDy=0;exitX=0.875;exitY=1.067;exitDx=0;exitDy=0;exitPerimeter=0;entryPerimeter=0;" parent="T_IMcI36_4ZPe9yHBbzY-75" source="T_IMcI36_4ZPe9yHBbzY-65" target="T_IMcI36_4ZPe9yHBbzY-68" edge="1">
          <mxGeometry width="50" height="50" relative="1" as="geometry">
            <mxPoint x="222" y="292" as="sourcePoint" />
            <mxPoint x="275" y="252" as="targetPoint" />
          </mxGeometry>
        </mxCell>
        <mxCell id="T_IMcI36_4ZPe9yHBbzY-73" value="" style="endArrow=none;html=1;rounded=0;entryX=0.5;entryY=1;entryDx=0;entryDy=0;exitX=0.5;exitY=0;exitDx=0;exitDy=0;" parent="T_IMcI36_4ZPe9yHBbzY-75" source="T_IMcI36_4ZPe9yHBbzY-67" target="T_IMcI36_4ZPe9yHBbzY-65" edge="1">
          <mxGeometry width="50" height="50" relative="1" as="geometry">
            <mxPoint x="222" y="292" as="sourcePoint" />
            <mxPoint x="275" y="252" as="targetPoint" />
          </mxGeometry>
        </mxCell>
        <mxCell id="oFEABXtt1nWRNOnX_rJP-4" value="Tiene" style="rhombus;whiteSpace=wrap;html=1;" parent="T_IMcI36_4ZPe9yHBbzY-75" vertex="1">
          <mxGeometry x="95" y="115" width="80" height="80" as="geometry" />
        </mxCell>
        <mxCell id="oFEABXtt1nWRNOnX_rJP-5" value="Cuota" style="rounded=0;whiteSpace=wrap;html=1;" parent="T_IMcI36_4ZPe9yHBbzY-75" vertex="1">
          <mxGeometry x="245" y="175" width="120" height="60" as="geometry" />
        </mxCell>
        <mxCell id="T_IMcI36_4ZPe9yHBbzY-77" value="Cargo" style="ellipse;whiteSpace=wrap;html=1;" parent="1" vertex="1">
          <mxGeometry x="280" y="540" width="120" height="80" as="geometry" />
        </mxCell>
        <mxCell id="T_IMcI36_4ZPe9yHBbzY-78" value="Nombre" style="ellipse;whiteSpace=wrap;html=1;" parent="1" vertex="1">
          <mxGeometry x="70" y="660" width="120" height="80" as="geometry" />
        </mxCell>
        <mxCell id="T_IMcI36_4ZPe9yHBbzY-79" value="Apellido" style="ellipse;whiteSpace=wrap;html=1;" parent="1" vertex="1">
          <mxGeometry x="180" y="600" width="120" height="80" as="geometry" />
        </mxCell>
        <mxCell id="T_IMcI36_4ZPe9yHBbzY-80" value="Numero de vendedor" style="ellipse;whiteSpace=wrap;html=1;" parent="1" vertex="1">
          <mxGeometry x="-100" y="510" width="120" height="80" as="geometry" />
        </mxCell>
        <mxCell id="T_IMcI36_4ZPe9yHBbzY-81" value="Fecha de ingreso" style="ellipse;whiteSpace=wrap;html=1;" parent="1" vertex="1">
          <mxGeometry x="-10" y="580" width="120" height="80" as="geometry" />
        </mxCell>
        <mxCell id="T_IMcI36_4ZPe9yHBbzY-85" style="edgeStyle=orthogonalEdgeStyle;rounded=0;orthogonalLoop=1;jettySize=auto;html=1;endArrow=none;endFill=0;entryX=0;entryY=0.75;entryDx=0;entryDy=0;" parent="1" source="T_IMcI36_4ZPe9yHBbzY-83" target="T_IMcI36_4ZPe9yHBbzY-65" edge="1">
          <mxGeometry relative="1" as="geometry">
            <mxPoint x="920" y="880" as="targetPoint" />
            <Array as="points">
              <mxPoint x="-150" y="810" />
              <mxPoint x="920" y="810" />
              <mxPoint x="920" y="803" />
            </Array>
          </mxGeometry>
        </mxCell>
        <mxCell id="T_IMcI36_4ZPe9yHBbzY-83" value="Paga" style="rhombus;whiteSpace=wrap;html=1;" parent="1" vertex="1">
          <mxGeometry x="-190" y="260" width="80" height="80" as="geometry" />
        </mxCell>
        <mxCell id="T_IMcI36_4ZPe9yHBbzY-88" style="edgeStyle=orthogonalEdgeStyle;rounded=0;orthogonalLoop=1;jettySize=auto;html=1;endArrow=none;endFill=0;" parent="1" source="T_IMcI36_4ZPe9yHBbzY-86" target="T_IMcI36_4ZPe9yHBbzY-24" edge="1">
          <mxGeometry relative="1" as="geometry">
            <Array as="points">
              <mxPoint x="1110" y="515" />
              <mxPoint x="1070" y="515" />
            </Array>
          </mxGeometry>
        </mxCell>
        <mxCell id="T_IMcI36_4ZPe9yHBbzY-86" value="Adjudica&amp;nbsp;&lt;div&gt;unidad&lt;/div&gt;" style="rhombus;whiteSpace=wrap;html=1;" parent="1" vertex="1">
          <mxGeometry x="1070" y="340" width="80" height="80" as="geometry" />
        </mxCell>
        <mxCell id="T_IMcI36_4ZPe9yHBbzY-90" value="" style="endArrow=none;html=1;rounded=0;entryX=0.5;entryY=1;entryDx=0;entryDy=0;exitX=0.158;exitY=-0.067;exitDx=0;exitDy=0;exitPerimeter=0;" parent="1" source="T_IMcI36_4ZPe9yHBbzY-1" target="T_IMcI36_4ZPe9yHBbzY-2" edge="1">
          <mxGeometry width="50" height="50" relative="1" as="geometry">
            <mxPoint x="790" y="170" as="sourcePoint" />
            <mxPoint x="660" y="50" as="targetPoint" />
          </mxGeometry>
        </mxCell>
        <mxCell id="T_IMcI36_4ZPe9yHBbzY-92" value="" style="endArrow=none;html=1;rounded=0;entryX=0.5;entryY=1;entryDx=0;entryDy=0;exitX=0.7;exitY=-0.017;exitDx=0;exitDy=0;exitPerimeter=0;" parent="1" source="T_IMcI36_4ZPe9yHBbzY-1" target="T_IMcI36_4ZPe9yHBbzY-3" edge="1">
          <mxGeometry width="50" height="50" relative="1" as="geometry">
            <mxPoint x="830" y="170" as="sourcePoint" />
            <mxPoint x="680" y="70" as="targetPoint" />
          </mxGeometry>
        </mxCell>
        <mxCell id="T_IMcI36_4ZPe9yHBbzY-93" value="" style="endArrow=none;html=1;rounded=0;entryX=0.442;entryY=1.025;entryDx=0;entryDy=0;exitX=1;exitY=0;exitDx=0;exitDy=0;entryPerimeter=0;" parent="1" source="T_IMcI36_4ZPe9yHBbzY-1" target="T_IMcI36_4ZPe9yHBbzY-4" edge="1">
          <mxGeometry width="50" height="50" relative="1" as="geometry">
            <mxPoint x="812" y="213" as="sourcePoint" />
            <mxPoint x="690" y="80" as="targetPoint" />
          </mxGeometry>
        </mxCell>
        <mxCell id="oFEABXtt1nWRNOnX_rJP-6" value="esto es redundante" style="text;html=1;align=center;verticalAlign=middle;resizable=0;points=[];autosize=1;strokeColor=none;fillColor=none;" parent="1" vertex="1">
          <mxGeometry x="1300" y="540" width="130" height="30" as="geometry" />
        </mxCell>
        <mxCell id="oFEABXtt1nWRNOnX_rJP-7" value="Numero cuota final" style="ellipse;whiteSpace=wrap;html=1;" parent="1" vertex="1">
          <mxGeometry x="1160" y="290" width="120" height="80" as="geometry" />
        </mxCell>
        <mxCell id="oFEABXtt1nWRNOnX_rJP-8" value="" style="endArrow=none;html=1;rounded=0;entryX=0;entryY=1;entryDx=0;entryDy=0;exitX=1;exitY=0;exitDx=0;exitDy=0;" parent="1" source="T_IMcI36_4ZPe9yHBbzY-86" target="oFEABXtt1nWRNOnX_rJP-7" edge="1">
          <mxGeometry width="50" height="50" relative="1" as="geometry">
            <mxPoint x="1130" y="350" as="sourcePoint" />
            <mxPoint x="1180" y="300" as="targetPoint" />
          </mxGeometry>
        </mxCell>
        <mxCell id="oFEABXtt1nWRNOnX_rJP-9" value="Fecha adjudicacion" style="ellipse;whiteSpace=wrap;html=1;" parent="1" vertex="1">
          <mxGeometry x="940" y="280" width="120" height="80" as="geometry" />
        </mxCell>
        <mxCell id="oFEABXtt1nWRNOnX_rJP-10" value="" style="endArrow=none;html=1;rounded=0;exitX=0.983;exitY=0.663;exitDx=0;exitDy=0;exitPerimeter=0;" parent="1" source="oFEABXtt1nWRNOnX_rJP-9" target="T_IMcI36_4ZPe9yHBbzY-86" edge="1">
          <mxGeometry width="50" height="50" relative="1" as="geometry">
            <mxPoint x="1060" y="360" as="sourcePoint" />
            <mxPoint x="1110" y="310" as="targetPoint" />
          </mxGeometry>
        </mxCell>
        <mxCell id="oFEABXtt1nWRNOnX_rJP-11" value="Unidad" style="rounded=0;whiteSpace=wrap;html=1;" parent="1" vertex="1">
          <mxGeometry x="680" y="165" width="120" height="60" as="geometry" />
        </mxCell>
        <mxCell id="oFEABXtt1nWRNOnX_rJP-13" style="edgeStyle=orthogonalEdgeStyle;rounded=0;orthogonalLoop=1;jettySize=auto;html=1;entryX=0.5;entryY=0;entryDx=0;entryDy=0;endArrow=none;endFill=0;" parent="1" source="oFEABXtt1nWRNOnX_rJP-12" target="oFEABXtt1nWRNOnX_rJP-11" edge="1">
          <mxGeometry relative="1" as="geometry" />
        </mxCell>
        <mxCell id="oFEABXtt1nWRNOnX_rJP-12" value="Es un" style="triangle;whiteSpace=wrap;html=1;direction=south;" parent="1" vertex="1">
          <mxGeometry x="670" y="50" width="80" height="60" as="geometry" />
        </mxCell>
      </root>
    </mxGraphModel>
  </diagram>
</mxfile>
